<svg xmlns="http://www.w3.org/2000/svg" width="6500" height="2000" viewBox="0 0 1719.79 529.17">
	<style>
		:root {
		--base-content: #fff;
		--neutral-content: #efefef;
		--primary: #2bd4be;
		--emboss-opacity: 1;
		}

		@media (prefers-color-scheme: light) {
		:root {
		--base-content: #000;
		--neutral-content: #030303;
		--primary: #0F766E;
		--emboss-opacity: .25;
		}
		}
	</style>
	<defs>
		<filter id="a" width="1.09" height="1.41" x="-.08" y="-.4"
			style="color-interpolation-filters:sRGB">
			<feFlood flood-color="#000" flood-opacity="1" result="flood" />
			<feComposite in="flood" in2="SourceGraphic" operator="in" result="composite1" />
			<feGaussianBlur in="composite1" result="blur" stdDeviation="2" />
			<feOffset dy="1" result="offset" />
			<feComposite in="SourceGraphic" in2="offset" result="composite2" />
		</filter>
		<filter id="c" width="1.01" height="1.07" x="0" y="-.03"
			style="color-interpolation-filters:sRGB">
			<feFlood flood-color="#fff" flood-opacity="var(--emboss-opacity)" result="flood" />
			<feComposite in="flood" in2="SourceGraphic" operator="out" result="composite1" />
			<feGaussianBlur in="composite1" result="blur" stdDeviation="2" />
			<feOffset dy="1" result="offset" />
			<feComposite in="offset" in2="SourceGraphic" operator="atop" result="composite2" />
		</filter>
	</defs>
	<g aria-label="Logo"
		style="font-weight:700;font-size:203.2px;line-height:1.25;font-family:Poppins;-inkscape-font-specification:&quot;Poppins Bold&quot;;fill:#fff;filter:url(#a)"
		transform="translate(-77.5 -49.37)">
		<circle cx="148.88" cy="156.62" r="17.37" id="dot"
			style="fill:var(--primary);filter:url(#c)" />
		<path
			d="M228.23 139.05v97.12q0 22.56-12.8 34.75-12.6 12.2-34.13 12.2-22.56 0-36.17-12.8-13.62-12.8-13.62-36.38h34.55q0 8.94 3.65 13.61 3.66 4.47 10.57 4.47 6.3 0 9.75-4.06 3.46-4.06 3.46-11.79v-97.12zm95.51 144.06q-20.12 0-36.98-9.34-16.67-9.35-26.62-26.01-9.76-16.87-9.76-37.8 0-20.93 9.76-37.59 9.95-16.66 26.62-26.01 16.86-9.35 36.98-9.35 20.12 0 36.78 9.35 16.86 9.35 26.41 26.01 9.76 16.66 9.76 37.6 0 20.92-9.76 37.79-9.75 16.66-26.41 26-16.66 9.35-36.78 9.35zm0-31.7q17.07 0 27.23-11.37 10.36-11.38 10.36-30.08 0-18.9-10.36-30.07-10.16-11.38-27.23-11.38-17.27 0-27.64 11.18-10.16 11.17-10.16 30.27 0 18.9 10.16 30.28 10.37 11.17 27.64 11.17zm215.8-112.36v142.64h-34.75v-58.72h-54.05v58.72h-34.75V139.05h34.75v55.88h54.05v-55.88zm152.6 142.65h-34.75l-58.11-88v88h-34.75V139.04h34.75l58.11 88.39v-88.4h34.75zm162.96-97.54q-3.86-7.12-11.17-10.77-7.11-3.86-16.87-3.86-16.86 0-27.02 11.17-10.16 10.97-10.16 29.47 0 19.7 10.56 30.88 10.77 10.97 29.47 10.97 12.8 0 21.54-6.5 8.94-6.5 13-18.7h-44.1v-25.6h75.6v32.31q-3.86 13-13.2 24.18-9.15 11.18-23.38 18.09-14.22 6.9-32.1 6.9-21.14 0-37.8-9.14-16.46-9.34-25.8-25.8-9.15-16.46-9.15-37.6 0-21.13 9.15-37.59 9.34-16.66 25.8-25.8 16.46-9.35 37.6-9.35 25.6 0 43.07 12.4 17.68 12.39 23.37 34.34zm127.62 98.95q-20.12 0-36.99-9.34-16.66-9.35-26.62-26.01-9.75-16.87-9.75-37.8 0-20.93 9.75-37.59 9.96-16.66 26.62-26.01 16.87-9.35 36.99-9.35 20.11 0 36.77 9.35 16.87 9.35 26.42 26.01 9.75 16.66 9.75 37.6 0 20.92-9.75 37.79-9.75 16.66-26.42 26-16.66 9.35-36.77 9.35zm0-31.7q17.06 0 27.22-11.37 10.37-11.38 10.37-30.08 0-18.9-10.37-30.07-10.16-11.38-27.22-11.38-17.28 0-27.64 11.18-10.16 11.17-10.16 30.27 0 18.9 10.16 30.28 10.36 11.17 27.64 11.17zm159.71 31.7q-20.12 0-36.98-9.34-16.66-9.35-26.62-26.01-9.75-16.87-9.75-37.8 0-20.93 9.75-37.59 9.96-16.66 26.62-26.01 16.86-9.35 36.98-9.35 20.12 0 36.78 9.35 16.87 9.35 26.42 26.01 9.75 16.66 9.75 37.6 0 20.92-9.75 37.79-9.76 16.66-26.42 26-16.66 9.35-36.78 9.35zm0-31.7q17.07 0 27.23-11.37 10.36-11.38 10.36-30.08 0-18.9-10.36-30.07-10.16-11.38-27.23-11.38-17.27 0-27.63 11.18-10.16 11.17-10.16 30.27 0 18.9 10.16 30.28 10.36 11.17 27.63 11.17zm145.69-112.36q22.56 0 39.43 8.94 16.86 8.94 26 25.2 9.35 16.05 9.35 37.18 0 20.93-9.35 37.18-9.14 16.26-26.2 25.2-16.87 8.94-39.23 8.94h-53.44V139.05zm-2.23 112.57q19.71 0 30.68-10.77 10.98-10.77 10.98-30.48t-10.98-30.68q-10.97-10.98-30.68-10.98h-16.46v82.9zm131.27 3.25h45.51v26.82h-80.26V139.05h34.75zm96.92-115.82v142.64h-34.74V139.05zm118.06 0v27.83h-58.11v30.08h43.48v27.02h-43.48v57.71h-34.75V139.05zm111.16 0v27.83h-58.12v30.08h43.48v27.02h-43.48v57.71h-34.75V139.05z"
			id="title"
			aria-label="JOHN GOODLIFF" style="fill:var(--neutral-content);filter:url(#c)" />
		<path
			d="M494.37 473.62q0 5.37 3.93 8.5 3.93 3.11 10.44 3.11 6.52 0 10.31-3.12 3.8-3.12 3.8-8 0-4.89-2.87-7.57-2.88-2.69-9.23-4.48-6.35-1.79-8.38-3.28-2.04-1.5-2.04-4.07 0-2.85 1.99-4.5 1.98-1.66 6.15-1.66 4.18 0 6.3 1.93 2.11 1.92 2.11 5.07v.33h5.21v-.33q0-5-3.69-8.22-3.69-3.23-9.93-3.23t-9.76 3.07q-3.53 3.06-3.53 7.68 0 4.6 2.69 7.13 2.68 2.5 9.14 4.37 6.21 1.79 8.44 3.42 2.25 1.62 2.25 4.34 0 2.98-2.3 4.83-2.31 1.84-6.66 1.84-4.34 0-6.75-1.79-2.42-1.79-2.42-5.37v-.33h-5.2zm32.96-3.04q0 6.46 3.66 10.55 3.66 4.1 9.8 4.1 6.13 0 9.79-4.1 3.66-4.1 3.66-10.55v-.87q0-6.45-3.66-10.55-3.66-4.1-9.8-4.1-6.13 0-9.79 4.1-3.66 4.1-3.66 10.55zm5.15-.87q0-4.42 2.1-7.46 2.08-3.06 6.2-3.06 4.13 0 6.22 3.06 2.09 3.04 2.09 7.46v.87q0 4.42-2.1 7.49-2.08 3.04-6.2 3.04-4.13 0-6.22-3.04-2.09-3.07-2.09-7.49zm29.39 14.71h5.04v-32.56q0-2.71 1.33-4.07 1.33-1.36 3.77-1.36.7 0 1.39.09.67.08 1.27.19l.27-4.07q-.81-.22-1.7-.33-.9-.1-1.77-.1-4.45 0-7.03 2.46-2.57 2.47-2.57 7.2zm-4.64-24.7h15.87v-3.84h-15.87zm17.36.01h16.28v-3.85h-16.28zm5.1 17.63q0 4.07 1.85 5.97 1.87 1.9 4.99 1.9 1.35 0 2.5-.24 1.13-.25 1.84-.57v-4.13q-.76.27-1.5.44-.73.16-1.49.16-1.62 0-2.38-.81-.76-.82-.76-2.72v-28.54h-5.05v9.38zm13.21-21.48 8.82 28.54h3.93l6.22-18.45q.35-1.09.65-2.17.32-1.09.6-2.17h.16q.27 1.08.57 2.17.32 1.08.68 2.17l6.2 18.45h3.94l8.82-28.54h-4.61l-5.1 18.77q-.3 1.09-.46 1.76l-.36 1.77h-.16q-.22-1.09-.4-1.77-.17-.67-.55-1.76l-6.4-18.77h-4.23L605 474.65q-.35 1.09-.54 1.76-.16.68-.38 1.77h-.16q-.22-1.09-.41-1.77-.16-.67-.46-1.76l-5.26-18.77zM636.6 476q0 4.35 2.86 6.65 2.85 2.31 6.92 2.31 3.52 0 5.75-1.36 2.25-1.35 3.25-3.12.08 1.09.38 2.17.33 1.09.7 1.77h4.9v-.44q-.5-1.2-.77-2.74-.27-1.57-.27-3.33v-13.03q0-4.88-2.85-7.35-2.82-2.47-7.97-2.47-5.16 0-8.2 2.55-3 2.53-3 5.92v.13h5.01v-.13q0-1.77 1.38-3.1 1.41-1.35 4.67-1.35t4.59 1.63q1.32 1.6 1.32 4.17v1.96h-6.45q-5.32 0-8.77 2.41-3.44 2.42-3.44 6.76zm5.06-.26q0-2.45 1.95-3.88 1.95-1.44 5.75-1.44h5.91v4.1q0 2.3-2.41 4.36-2.41 2.06-5.4 2.06-2.98 0-4.4-1.38-1.4-1.38-1.4-3.82zm26.53 8.68h5.04v-20.08q.82-1.9 2.53-3.17 1.7-1.28 4.15-1.28.7 0 1.3.06.6.05 1.14.16v-4.67q-.27-.1-.92-.24-.65-.14-1.25-.14-2.44 0-4.2 1.36-1.77 1.33-2.85 3.12h-.17l-.21-3.66h-4.56zm16.77-13.84q0 6.46 3.52 10.55 3.56 4.1 10.2 4.1 4.07 0 6.9-1.76 2.84-1.77 4.2-3.8l-3.26-2.58q-1.22 1.63-3.17 2.82-1.95 1.2-4.67 1.2-4.4 0-6.48-3.04-2.09-3.07-2.09-7.49v-.87q0-4.42 1.98-7.46 1.98-3.06 6-3.06 3.3 0 5.07 2.17 1.76 2.17 1.76 5.26v.65h-16.87v4.02H710v-2.07q0-6.5-3.15-10.33t-8.98-3.83q-5.83 0-9.39 4.1-3.52 4.1-3.52 10.55zm45.38 13.84h11.72q7.6 0 12.65-5.02 5.07-5.02 5.07-13.49v-2.5q0-8.46-5.07-13.48-5.05-5.01-12.65-5.01h-11.72zm5.21-4.29V449.2h6.51q5.7 0 9.07 3.77 3.39 3.77 3.39 10.45v2.5q0 6.67-3.4 10.44-3.36 3.77-9.06 3.77zm29.65-9.55q0 6.46 3.53 10.55 3.56 4.1 10.2 4.1 4.07 0 6.9-1.76 2.84-1.77 4.2-3.8l-3.26-2.58q-1.22 1.63-3.17 2.82-1.95 1.2-4.67 1.2-4.4 0-6.48-3.04-2.09-3.07-2.09-7.49v-.87q0-4.42 1.98-7.46 1.98-3.06 6-3.06 3.3 0 5.07 2.17 1.76 2.17 1.76 5.26v.65H768.3v4.02h21.95v-2.07q0-6.5-3.15-10.33t-8.98-3.83q-5.83 0-9.39 4.1-3.52 4.1-3.52 10.55zm26.86-14.7 10.86 28.54h3.85l10.85-28.54h-4.77L806 474.92q-.38 1.09-.65 2.04-.25.95-.35 1.49h-.17q-.1-.54-.38-1.5-.24-.94-.62-2.03l-6.9-19.04zm27.51 14.7q0 6.46 3.53 10.55 3.56 4.1 10.2 4.1 4.07 0 6.9-1.76 2.84-1.77 4.2-3.8l-3.26-2.58q-1.22 1.63-3.17 2.82-1.95 1.2-4.67 1.2-4.4 0-6.48-3.04-2.09-3.07-2.09-7.49v-.87q0-4.42 1.98-7.46 1.98-3.06 6-3.06 3.3 0 5.07 2.17 1.76 2.17 1.76 5.26v.65h-16.87v4.02h21.95v-2.07q0-6.5-3.15-10.33t-8.98-3.83q-5.83 0-9.39 4.1-3.53 4.1-3.53 10.55zm31.45 13.84h5.04v-41.67h-5.04zm11.58-13.84q0 6.46 3.67 10.55 3.66 4.1 9.79 4.1 6.13 0 9.8-4.1 3.66-4.1 3.66-10.55v-.87q0-6.45-3.67-10.55-3.66-4.1-9.79-4.1-6.13 0-9.8 4.1-3.66 4.1-3.66 10.55zm5.16-.87q0-4.42 2.09-7.46 2.09-3.06 6.21-3.06t6.21 3.06q2.1 3.04 2.1 7.46v.87q0 4.42-2.1 7.49-2.09 3.04-6.21 3.04t-6.21-3.04q-2.1-3.07-2.1-7.49zm28.08 25.99h5.04v-14.65q1.25 1.77 3.34 2.85 2.12 1.06 5.1 1.06 5.43 0 8.68-4.07 3.26-4.07 3.26-10.3v-.88q0-6.24-3.26-10.3-3.25-4.08-8.68-4.08-2.98 0-5.23 1.25-2.23 1.25-3.31 3.01h-.17l-.21-3.71h-4.56zm5.04-19.75v-11.6q.84-1.9 2.74-3.4 1.9-1.5 4.62-1.5 4.07 0 5.96 2.96 1.9 2.96 1.9 7.3v.87q0 4.34-1.9 7.3t-5.96 2.96q-2.72 0-4.62-1.5-1.9-1.49-2.74-3.39zm24.99-5.37q0 6.46 3.53 10.55 3.55 4.1 10.2 4.1 4.07 0 6.89-1.76 2.85-1.77 4.2-3.8l-3.25-2.58q-1.22 1.63-3.18 2.82-1.95 1.2-4.66 1.2-4.4 0-6.49-3.04-2.08-3.07-2.08-7.49v-.87q0-4.42 1.98-7.46 1.98-3.06 6-3.06 3.3 0 5.06 2.17 1.77 2.17 1.77 5.26v.65h-16.88v4.02h21.95v-2.07q0-6.5-3.15-10.33-3.14-3.83-8.98-3.83-5.83 0-9.38 4.1-3.53 4.1-3.53 10.55zm31.23 13.84h5.04v-20.08q.82-1.9 2.53-3.17 1.7-1.28 4.15-1.28.7 0 1.3.06.6.05 1.14.16v-4.67q-.27-.1-.92-.24-.65-.14-1.25-.14-2.44 0-4.2 1.36-1.77 1.33-2.85 3.12h-.17l-.21-3.66h-4.56zm30.7-10.32q0 4.76 3.4 7.82 3.4 3.04 9.36 3.04 7.05 0 11.83-5.43 4.77-5.42 4.77-13.4h-4.66q0 6.9-3.53 10.8-3.53 3.9-8.41 3.9-3.53 0-5.64-1.87-2.12-1.87-2.12-4.85 0-2.99 1.98-5.18 1.98-2.2 5.78-4.59l4.34-2.71q2.6-1.63 4.18-3.8 1.57-2.17 1.57-5.43 0-3.52-2.6-5.91t-6.81-2.39q-4.2 0-7.06 2.52-2.84 2.53-2.84 6.33 0 2.7 1.54 5.29 1.55 2.57 4.42 6.1l16.4 20.08h6.01l-18.6-22.8q-2.67-3.25-3.75-5.01-1.09-1.76-1.09-3.66 0-1.9 1.33-3.31 1.33-1.41 3.64-1.41 2.3 0 3.53 1.27 1.22 1.28 1.22 3.17 0 1.63-.82 2.99-.81 1.36-2.98 2.71l-4.34 2.71q-4.07 2.56-7.06 5.62-2.98 3.07-2.98 7.4zm49.25-8.19q0 9.12 4.67 14.22 4.69 5.1 11.74 5.1 7.06 0 10.77-3.88 3.72-3.88 4.26-9.3l.03-.28h-5.2l-.04.28q-.38 3.69-2.76 6.2-2.39 2.53-7.06 2.53-4.88 0-8.03-3.96-3.12-3.96-3.12-10.9v-2.5q0-7.54 3.15-11.2 3.15-3.67 8-3.67 4.97 0 7.41 2.5 2.44 2.47 2.44 6.24v.27h5.21v-.27q0-5.46-4.01-9.3-4-3.89-11.05-3.89-7.05 0-11.74 5.1-4.67 5.1-4.67 14.22zm36.19 10.09q0 4.35 2.85 6.65 2.85 2.31 6.92 2.31 3.53 0 5.75-1.36 2.25-1.35 3.26-3.12.08 1.09.38 2.17.32 1.09.7 1.77h4.88v-.44q-.48-1.2-.76-2.74-.27-1.57-.27-3.33v-13.03q0-4.88-2.85-7.35-2.82-2.47-7.97-2.47-5.16 0-8.2 2.55-3 2.53-3 5.92v.13h5.01v-.13q0-1.77 1.39-3.1 1.4-1.35 4.66-1.35 3.26 0 4.59 1.63 1.33 1.6 1.33 4.17v1.96h-6.46q-5.32 0-8.76 2.41-3.45 2.42-3.45 6.76zm5.05-.26q0-2.45 1.95-3.88 1.95-1.44 5.75-1.44h5.92v4.1q0 2.3-2.42 4.36-2.41 2.06-5.4 2.06-2.98 0-4.4-1.38-1.4-1.38-1.4-3.82zm22.51-16.01h16.28v-3.85h-16.27zm5.1 17.63q0 4.07 1.85 5.97 1.87 1.9 5 1.9 1.35 0 2.49-.24 1.14-.25 1.84-.57v-4.13q-.76.27-1.49.44-.73.16-1.49.16-1.63 0-2.39-.81-.76-.82-.76-2.72v-28.54h-5.04v9.38zm37.17 7.33h5.05l7.62-29.3q.25-.92.41-1.74.2-.84.33-1.73h.21q.14.89.3 1.73l.44 1.74 7.62 29.3h5.05l9.7-39.77h-5.15l-6.45 29.24q-.22.92-.33 1.5-.1.54-.22 1.43h-.24q-.1-.9-.22-1.44-.08-.57-.32-1.49l-7.63-29.24h-5.26l-7.35 29.24q-.25.92-.35 1.5-.09.54-.2 1.43h-.27q-.1-.9-.21-1.44-.08-.57-.3-1.49l-6.73-29.24h-5.2zm42.11-.27h5.05v-20.19q1.03-2.06 2.87-3.36 1.85-1.3 4.26-1.3 2.82 0 4.34 1.49 1.55 1.46 1.55 4.88v18.48h5.05V466q0-5.76-2.58-8.2-2.55-2.47-6.54-2.47-2.77 0-5.1 1.12-2.33 1.1-3.85 2.95v-16.65h-5.05zm31.12 0h5.04v-28.54h-5.04zm-.63-37.17q0 1.27.82 2.14.81.87 2.33.87t2.34-.87q.8-.87.8-2.14 0-1.28-.8-2.14-.82-.87-2.34-.87t-2.33.87q-.82.86-.82 2.14zm12.1 28.75v.14q0 4.13 2.99 6.62 2.98 2.47 8.68 2.47 5.7 0 8.55-2.44 2.85-2.44 2.85-6.24 0-3.8-2.53-5.83-2.5-2.04-7.1-3.12-4.62-1.09-6.2-2.04-1.57-.95-1.57-2.58 0-1.62 1.36-2.7 1.39-1.1 4.37-1.1 2.98 0 4.4 1.17 1.43 1.17 1.43 3.2v.25h5.02v-.14q0-3.96-2.98-6.26-2.99-2.34-7.87-2.34t-7.81 2.34q-2.9 2.33-2.9 5.86 0 3.52 2.7 5.5 2.72 1.96 7.33 3.04 4.61 1.09 6 2.12 1.38 1 1.38 2.9t-1.74 3.1q-1.7 1.19-4.69 1.19-2.98 0-4.8-1.25-1.82-1.25-1.82-3.72v-.13zm29.25 19.7h5.05v-14.65q1.25 1.77 3.33 2.85 2.12 1.06 5.1 1.06 5.43 0 8.69-4.07 3.25-4.07 3.25-10.3v-.88q0-6.24-3.25-10.3-3.26-4.08-8.69-4.08-2.98 0-5.23 1.25-2.23 1.25-3.31 3.01h-.16l-.22-3.71h-4.56zm5.05-19.75v-11.6q.84-1.9 2.74-3.4 1.9-1.5 4.6-1.5 4.08 0 5.98 2.96 1.9 2.96 1.9 7.3v.87q0 4.34-1.9 7.3t-5.97 2.96q-2.71 0-4.61-1.5-1.9-1.49-2.74-3.39zm24.98-5.37q0 6.46 3.53 10.55 3.56 4.1 10.2 4.1 4.07 0 6.9-1.76 2.84-1.77 4.2-3.8l-3.26-2.58q-1.22 1.63-3.17 2.82-1.96 1.2-4.67 1.2-4.4 0-6.48-3.04-2.1-3.07-2.1-7.49v-.87q0-4.42 1.99-7.46 1.98-3.06 6-3.06 3.3 0 5.07 2.17 1.76 2.17 1.76 5.26v.65h-16.87v4.02h21.95v-2.07q0-6.5-3.15-10.33t-8.98-3.83q-5.83 0-9.39 4.1-3.53 4.1-3.53 10.55zm31.23 13.84h5.05v-20.08q.81-1.9 2.52-3.17 1.7-1.28 4.15-1.28.7 0 1.3.06.6.05 1.14.16v-4.67q-.27-.1-.92-.24-.65-.14-1.25-.14-2.44 0-4.2 1.36-1.77 1.33-2.85 3.12h-.16l-.22-3.66h-4.56zm16.77-13.84q0 6.46 3.52 10.55 3.56 4.1 10.2 4.1 4.07 0 6.9-1.76 2.84-1.77 4.2-3.8l-3.25-2.58q-1.23 1.63-3.18 2.82-1.95 1.2-4.66 1.2-4.4 0-6.49-3.04-2.09-3.07-2.09-7.49v-.87q0-4.42 1.98-7.46 1.98-3.06 6-3.06 3.3 0 5.07 2.17 1.77 2.17 1.77 5.26v.65h-16.88v4.02h21.95v-2.07q0-6.5-3.15-10.33t-8.98-3.83q-5.83 0-9.39 4.1-3.52 4.1-3.52 10.55zm31.22 13.84h5.05v-20.08q.81-1.9 2.52-3.17 1.71-1.28 4.15-1.28.71 0 1.3.06.6.05 1.15.16v-4.67q-.28-.1-.93-.24-.65-.14-1.24-.14-2.45 0-4.21 1.36-1.76 1.33-2.85 3.12h-.16l-.22-3.66h-4.56z"
			id="tagline"
			aria-label="Software Developer &amp; Cat Whisperer"
			style="fill:var(--base-content);font-weight:400;font-size:55.5625px;font-family:&quot;Roboto Flex&quot;;-inkscape-font-specification:&quot;Roboto Flex&quot;" />
	</g>
</svg>
