<svg xmlns="http://www.w3.org/2000/svg" width="480" height="150" viewBox="0 0 127 39.69">
	<style>
		:root {
		--primary: #fb7185;
		--spin-duration: 4s;
		}

		@media (prefers-color-scheme: light) {
		:root {
		--primary: #0F766E;
		}
		}

		@keyframes spin {
		0% {transform: scaleX(0);}
		3% {transform: scaleX(1);}
		47% {transform: scaleX(1);}
		50% {transform: scaleX(0);}
		100% {transform: scaleX(0);}
		}

		path {
		fill: var(--primary);
		filter: drop-shadow(0 1px .2px #000);
		}

		#front, #back {
		transform-origin: center;
		animation: var(--spin-duration) ease-in infinite both spin;
		animation-timing-function: cubic-bezier(0.39, 0.58, 0.57, 1);
		}

		#back {
		animation-delay: calc(var(--spin-duration) / 2);
		}
	</style>
	<filter id="blur">
		<feGaussianBlur in="SourceGraphic" stdDeviation="0 0">
			<animate attributeName="stdDeviation"
				values="4 0; 0 0; 0 0; 0 0; 0 0; 0 0; 0 0; 0 0; 0 0; 4 0;"
				dur="2s"
				begin=".05s"
				repeatCount="indefinite" />
		</feGaussianBlur>
	</filter>
	<g id="front" aria-label="John Goodliff" filter="url(#blur)">
		<path
			d="M26.78 71.84q-1.25 0-2.25-.4t-1.67-1.18l1.93-2.28q.43.52.83.8.41.25.85.25 1.16 0 1.16-1.32v-4.04h-3.61v-2.7h7.14v6.53q0 2.18-1.12 3.26-1.12 1.08-3.26 1.08zM37.08 71.74q-1.41 0-2.5-.54-1.08-.56-1.7-1.53-.63-.97-.63-2.23t.63-2.23q.62-.97 1.7-1.52 1.09-.55 2.5-.55 1.4 0 2.5.55t1.7 1.52q.62.97.62 2.23t-.62 2.23q-.6.97-1.7 1.53-1.1.54-2.5.54zm0-2.66q.38 0 .68-.19.3-.18.49-.54.18-.38.18-.91 0-.55-.18-.9-.19-.36-.49-.54-.3-.19-.68-.19-.38 0-.68.19-.3.18-.49.54-.18.35-.18.9 0 .53.18.9t.49.55q.3.19.68.19zM48.74 63.14q.96 0 1.73.4.78.38 1.22 1.2.45.82.45 2.12v4.73h-3.43v-4.14q0-.77-.27-1.09-.27-.33-.74-.33-.35 0-.66.16-.28.15-.47.52-.16.36-.16.98v3.9h-3.43V60.34h3.43v5.38l-.82-.7q.48-.94 1.3-1.4.84-.48 1.85-.48zM59.4 63.14q.95 0 1.72.4.77.38 1.21 1.2.46.82.46 2.12v4.73h-3.43v-4.14q0-.77-.27-1.09-.27-.33-.74-.33-.35 0-.66.16-.29.15-.47.52-.16.36-.16.98v3.9h-3.43v-8.3h3.26v2.43l-.65-.7q.48-.94 1.3-1.4.84-.48 1.85-.48zM74.44 71.84q-1.29 0-2.38-.4-1.08-.4-1.88-1.15-.8-.74-1.23-1.76-.44-1.02-.44-2.25 0-1.22.44-2.24.44-1.02 1.24-1.76t1.9-1.14q1.1-.4 2.43-.4 1.57 0 2.8.52 1.25.53 2.05 1.52l-2.3 2.02q-.5-.58-1.08-.87-.58-.3-1.3-.3-.58 0-1.07.18-.47.18-.8.53-.34.35-.52.84-.18.48-.18 1.1 0 .6.18 1.1.18.48.52.83.33.35.79.55.47.18 1.04.18.6 0 1.19-.2.57-.21 1.22-.71l2 2.46q-.96.65-2.2 1-1.25.35-2.42.35zm1.52-1.8V66h3.1v4.49zM84.88 71.74q-1.41 0-2.5-.54-1.08-.56-1.7-1.53-.63-.97-.63-2.23t.62-2.23q.63-.97 1.7-1.52 1.1-.55 2.5-.55 1.42 0 2.5.55 1.1.55 1.7 1.52.63.97.63 2.23t-.62 2.23q-.6.97-1.7 1.53-1.1.54-2.5.54zm0-2.66q.38 0 .68-.19.3-.18.48-.54.19-.38.19-.91 0-.55-.19-.9-.18-.36-.48-.54-.3-.19-.68-.19-.38 0-.69.19-.3.18-.48.54-.18.35-.18.9 0 .53.18.9t.48.55q.3.19.69.19zM95.16 71.74q-1.4 0-2.5-.54-1.08-.56-1.7-1.53-.62-.97-.62-2.23t.62-2.23q.62-.97 1.7-1.52 1.1-.55 2.5-.55 1.41 0 2.5.55 1.1.55 1.7 1.52.63.97.63 2.23t-.63 2.23q-.6.97-1.7 1.53-1.09.54-2.5.54zm0-2.66q.38 0 .68-.19.3-.18.49-.54.18-.38.18-.91 0-.55-.18-.9-.18-.36-.49-.54-.3-.19-.68-.19-.38 0-.68.19-.3.18-.49.54-.18.35-.18.9 0 .53.18.9.19.37.49.55.3.19.68.19zM104.7 71.74q-1.07 0-2-.51-.91-.53-1.46-1.49-.54-.97-.54-2.3 0-1.34.54-2.3.55-.96 1.46-1.48.93-.52 2-.52 1.1 0 1.8.47.7.46 1.02 1.41.34.95.34 2.42 0 1.48-.32 2.44-.3.95-1 1.41-.68.45-1.84.45zm.82-2.66q.38 0 .68-.19.3-.18.49-.54.18-.38.18-.91 0-.55-.18-.9-.18-.36-.49-.54-.3-.19-.68-.19-.38 0-.68.19-.3.18-.49.54-.18.35-.18.9 0 .53.18.9.19.37.49.55.3.19.68.19zm1.46 2.51v-1.12l-.02-3.03-.15-3.04v-4.06h3.43v11.25zM111.76 71.6V60.33h3.42v11.25zM116.7 71.6v-8.3h3.43v8.3zm1.72-8.97q-.94 0-1.5-.5-.57-.5-.57-1.25 0-.74.56-1.24.57-.5 1.5-.5.95 0 1.5.47.57.47.57 1.21 0 .8-.56 1.3t-1.5.5zM122.03 71.6v-7.9q0-1.6.95-2.56.97-.95 2.75-.95.54 0 1.09.1.56.1.94.3l-.82 2.39q-.17-.08-.36-.14-.2-.06-.41-.06-.37 0-.6.23-.22.22-.22.73v.39l.1 1.41v6.05zm-1.14-5.35v-2.5h6.26v2.5zM128.8 71.6v-7.9q0-1.6.95-2.56.97-.95 2.74-.95.55 0 1.1.1.56.1.94.3l-.82 2.39q-.17-.08-.37-.14-.2-.06-.4-.06-.37 0-.6.23-.23.22-.23.73v.39l.11 1.41v6.05zm-1.15-5.35v-2.5h6.27v2.5z"
			transform="translate(-15.2 -51.6)" />
	</g>
	<g id="back" aria-label="johng.io" filter="url(#blur)">
		<path
			d="M45.64 74.69q-.6 0-1.15-.1-.56-.11-.96-.31l.82-2.38q.37.2.78.2.3 0 .5-.23t.2-.73V63.3h3.44v7.87q0 1.6-.96 2.56-.95.96-2.67.96zm1.91-12.06q-.94 0-1.5-.5t-.56-1.25q0-.74.56-1.24t1.5-.5q.94 0 1.5.47.57.47.57 1.21 0 .8-.57 1.3-.56.5-1.5.5zM55.17 71.74q-1.41 0-2.5-.54-1.08-.56-1.7-1.53-.63-.97-.63-2.23t.63-2.23q.62-.97 1.7-1.52 1.09-.55 2.5-.55 1.4 0 2.5.55t1.7 1.52q.62.97.62 2.23t-.62 2.23q-.6.97-1.7 1.53-1.1.54-2.5.54zm0-2.66q.38 0 .68-.19.3-.18.49-.54.18-.38.18-.91 0-.55-.18-.9-.19-.36-.49-.54-.3-.19-.68-.19-.38 0-.69.19-.3.18-.48.54-.18.35-.18.9 0 .53.18.9t.48.55q.3.19.69.19zM66.83 63.14q.96 0 1.73.4.78.38 1.22 1.2.45.82.45 2.12v4.73H66.8v-4.14q0-.77-.27-1.09-.27-.33-.74-.33-.35 0-.66.16-.28.15-.47.52-.16.36-.16.98v3.9h-3.43V60.34h3.43v5.38l-.82-.7q.48-.94 1.3-1.4.84-.48 1.85-.48zM77.48 63.14q.96 0 1.73.4.77.38 1.21 1.2.46.82.46 2.12v4.73h-3.43v-4.14q0-.77-.27-1.09-.28-.33-.75-.33-.34 0-.65.16-.29.15-.47.52-.16.36-.16.98v3.9h-3.43v-8.3h3.26v2.43l-.65-.7q.48-.94 1.3-1.4.84-.48 1.85-.48zM86.73 74.69q-1.22 0-2.3-.26-1.08-.26-1.85-.77l1.15-2.34q.49.38 1.23.6.76.22 1.43.22 1.06 0 1.51-.46.46-.44.46-1.27v-.7l.15-2.58.01-2.58V63.3h3.27v6.64q0 2.41-1.34 3.58-1.33 1.17-3.72 1.17zm-.66-3.55q-1.05 0-1.96-.49-.91-.5-1.47-1.4-.56-.89-.56-2.12t.56-2.12q.56-.9 1.47-1.38.91-.49 1.96-.49 1.07 0 1.76.43.7.42 1.03 1.32.33.88.33 2.24 0 1.37-.33 2.26-.34.88-1.03 1.32-.69.43-1.76.43zm.9-2.67q.42 0 .74-.17.31-.17.5-.47.18-.3.18-.7 0-.4-.18-.7-.19-.3-.5-.45-.32-.17-.73-.17-.4 0-.73.17-.32.15-.52.46-.18.28-.18.7 0 .39.18.7.2.3.52.46.33.17.73.17zM94.85 71.74q-.85 0-1.43-.54-.57-.56-.57-1.43 0-.88.57-1.4.58-.54 1.43-.54t1.43.53q.57.53.57 1.41 0 .87-.57 1.43-.58.54-1.43.54zM97.91 71.6v-8.3h3.43v8.3zm1.72-8.97q-.94 0-1.5-.5t-.56-1.25q0-.74.56-1.24t1.5-.5q.94 0 1.5.47t.56 1.21q0 .8-.56 1.3t-1.5.5zM107.24 71.74q-1.4 0-2.5-.54-1.08-.56-1.7-1.53-.62-.97-.62-2.23t.62-2.23q.62-.97 1.7-1.52 1.1-.55 2.5-.55 1.41 0 2.5.55 1.1.55 1.7 1.52.63.97.63 2.23t-.62 2.23q-.61.97-1.7 1.53-1.1.54-2.5.54zm0-2.66q.38 0 .69-.19.3-.18.48-.54.18-.38.18-.91 0-.55-.18-.9-.18-.36-.48-.54-.3-.19-.69-.19-.38 0-.68.19-.3.18-.48.54-.19.35-.19.9 0 .53.19.9.18.37.48.55.3.19.68.19z"
			transform="translate(-15.2 -51.6)" />
	</g>
	<g id="tagline" aria-label="Software Developer &amp; Cat Whisperer">
		<path
			d="M29.08 33.78q0 .3-.14.53-.13.23-.37.35-.25.12-.58.12l-.32-.02-.28-.05q-.14-.04-.24-.09v-.4q.17.09.4.15.22.05.44.05.23 0 .38-.08.15-.07.23-.21.08-.14.08-.32 0-.17-.07-.3-.06-.12-.22-.22-.15-.1-.41-.2l-.34-.18q-.15-.1-.25-.21-.1-.12-.16-.27-.05-.16-.05-.36 0-.28.13-.49.13-.2.36-.31.23-.12.52-.12.24 0 .45.05.22.06.38.13l-.13.36q-.16-.08-.34-.13-.18-.04-.36-.04-.2 0-.33.06-.13.07-.2.2-.08.11-.08.28 0 .18.07.3.06.13.21.22.15.1.4.2.26.12.45.25.18.14.28.31.09.18.09.44zM31.63 33.4q0 .32-.07.58-.07.25-.2.43-.14.18-.34.27-.2.1-.45.1-.24 0-.43-.1-.2-.1-.33-.27-.13-.18-.2-.43-.07-.26-.07-.58 0-.43.12-.74.12-.3.35-.46.23-.16.57-.16.33 0 .56.16.23.15.36.46.13.3.13.74zm-1.7 0q0 .33.07.57.07.23.21.36.15.12.37.12.23 0 .37-.12.14-.13.21-.36.07-.23.07-.57 0-.33-.07-.56-.07-.23-.21-.35-.14-.12-.37-.12-.34 0-.5.26-.15.27-.15.77zM33.24 32.4h-.54v2.33h-.38V32.4h-.4v-.2l.4-.13v-.18q0-.31.08-.52.07-.21.23-.31t.4-.1q.13 0 .24.02l.2.05-.09.31-.16-.04-.16-.02q-.19 0-.27.14-.08.14-.09.47v.2h.54zM34.42 34.45l.16-.01.15-.04v.3q-.08.04-.18.06-.1.02-.22.02-.2 0-.33-.08-.14-.07-.22-.24-.08-.16-.08-.43V32.4h-.3v-.2l.31-.13.13-.6h.25v.61h.61v.32h-.6V34q0 .23.07.34.08.11.25.11zM37.05 34.73l-.4-1.6-.04-.16-.04-.16-.03-.16-.02-.13h-.02l-.02.13-.03.16-.04.16-.04.17-.41 1.59h-.44l-.65-2.65h.4l.32 1.42.06.28.06.27.04.24h.01l.03-.16.04-.19.04-.2.05-.2.38-1.46h.43l.37 1.47.06.22.05.26.05.26h.01l.03-.18.05-.23.05-.25.36-1.55h.39l-.66 2.65zM39.42 32.04q.42 0 .62.22.19.23.19.68v1.79h-.29l-.07-.38h-.01q-.09.14-.2.23-.1.1-.23.15-.13.05-.32.05-.22 0-.38-.1t-.25-.27q-.08-.17-.08-.4 0-.4.27-.62.27-.21.8-.23l.38-.02v-.17q0-.33-.12-.47-.12-.14-.35-.14-.15 0-.31.05-.16.04-.31.13l-.12-.3q.16-.09.36-.15.2-.05.42-.05zm.43 1.38-.33.02q-.38.01-.55.15-.17.15-.17.41 0 .24.11.35.12.12.3.12.3 0 .46-.2.18-.21.18-.6zM42 32.04h.14l.14.03-.06.38-.12-.03h-.12q-.14 0-.25.06-.12.07-.2.2-.09.11-.14.28-.04.17-.04.37v1.4h-.39v-2.65h.31l.05.48h.02q.07-.15.16-.27.1-.11.22-.18.13-.07.28-.07zM43.59 32.04q.3 0 .5.15.21.16.32.42.1.27.1.61v.26h-1.53q0 .48.19.72.18.25.54.25.2 0 .36-.05.16-.04.34-.13v.34q-.17.09-.34.13-.17.04-.4.04-.35 0-.6-.17-.24-.16-.36-.47-.13-.3-.13-.72 0-.43.12-.74t.35-.48q.22-.16.54-.16zm0 .32q-.27 0-.43.2-.15.2-.18.6h1.16q0-.22-.07-.4-.06-.19-.18-.3-.12-.1-.3-.1zM48.63 32.93q0 .6-.18 1t-.52.6q-.34.2-.83.2h-.83V31.2h.9q.46 0 .79.2.32.2.5.58.17.38.17.95zm-.42.02q0-.47-.12-.78-.13-.31-.37-.47-.24-.15-.6-.15h-.45v2.83h.4q.58 0 .86-.36t.28-1.07zM50.15 32.04q.3 0 .51.15.2.16.31.42.11.27.11.61v.26h-1.54q0 .48.19.72.19.25.54.25.2 0 .36-.05.17-.04.34-.13v.34q-.16.09-.34.13-.17.04-.39.04-.35 0-.6-.17-.24-.16-.37-.47-.12-.3-.12-.72 0-.43.12-.74t.34-.48q.22-.16.54-.16zm0 .32q-.27 0-.42.2-.16.2-.19.6h1.16q0-.22-.06-.4-.06-.19-.18-.3-.12-.1-.31-.1zM52.16 34.73l-.84-2.65h.4l.48 1.6.1.34.06.31h.02l.07-.27.09-.33.48-1.65h.4l-.83 2.65zM54.69 32.04q.3 0 .5.15.21.16.32.42.1.27.1.61v.26h-1.53q0 .48.19.72.18.25.54.25.2 0 .36-.05.16-.04.34-.13v.34q-.17.09-.34.13-.17.04-.4.04-.35 0-.6-.17-.24-.16-.36-.47-.13-.3-.13-.72 0-.43.12-.74t.35-.48q.22-.16.54-.16zm0 .32q-.27 0-.43.2-.15.2-.18.6h1.16q0-.22-.07-.4-.06-.19-.18-.3-.12-.1-.3-.1zM56.6 34.73h-.38v-3.75h.39zM59.31 33.4q0 .32-.07.58-.06.25-.2.43-.13.18-.33.27-.2.1-.45.1-.24 0-.43-.1-.2-.1-.33-.27-.14-.18-.2-.43-.08-.26-.08-.58 0-.43.12-.74.12-.3.36-.46.23-.16.57-.16.32 0 .56.16.23.15.36.46.12.3.12.74zm-1.7 0q0 .33.08.57.07.23.21.36.15.12.37.12t.37-.12q.14-.13.2-.36.08-.23.08-.57 0-.33-.07-.56-.07-.23-.21-.35-.15-.12-.37-.12-.34 0-.5.26-.15.27-.15.77zM61.03 32.04q.43 0 .68.34.24.34.24 1.02 0 .45-.1.75-.12.31-.33.47-.2.16-.49.16-.17 0-.31-.05-.14-.06-.24-.15-.1-.1-.17-.22h-.02l.01.2.01.2v1.15h-.38v-3.83h.31l.05.4h.02q.07-.14.17-.24.1-.1.24-.15.13-.05.3-.05zm-.08.32q-.22 0-.36.11-.14.1-.2.32-.08.21-.08.53v.1q0 .34.07.57.06.23.2.34.15.12.38.12.2 0 .33-.12.13-.13.2-.36.07-.23.07-.57 0-.5-.15-.77-.14-.27-.46-.27zM63.44 32.04q.3 0 .51.15.2.16.31.42.11.27.11.61v.26h-1.54q0 .48.19.72.19.25.54.25.2 0 .36-.05.17-.04.34-.13v.34q-.16.09-.34.13-.17.04-.39.04-.35 0-.6-.17-.24-.16-.37-.47-.12-.3-.12-.72 0-.43.12-.74t.34-.48q.22-.16.54-.16zm0 .32q-.27 0-.42.2-.16.2-.19.6H64q0-.22-.06-.4-.06-.19-.18-.3-.12-.1-.31-.1zM66.02 32.04h.14l.13.03-.05.38-.12-.03h-.13q-.13 0-.25.06-.11.07-.2.2-.08.11-.13.28-.05.17-.05.37v1.4h-.38v-2.65h.3l.05.48h.02q.07-.15.17-.27.1-.11.22-.18.12-.07.28-.07zM68.7 31.15q.23 0 .39.1.16.08.24.24.09.17.09.4 0 .32-.16.54-.15.23-.42.42l.75.91q.1-.14.15-.33.07-.19.1-.4h.39q-.05.28-.15.55-.1.27-.25.48l.57.67h-.5l-.32-.4q-.13.14-.28.24-.14.1-.32.15-.18.06-.4.06-.3 0-.5-.12t-.31-.33q-.11-.21-.11-.5 0-.24.07-.42.08-.18.23-.33.15-.15.36-.29l-.19-.28q-.08-.14-.13-.29-.04-.15-.04-.33 0-.23.09-.4.09-.16.26-.25t.4-.09zm-.17 1.9q-.16.1-.26.22-.1.1-.16.24-.05.13-.05.3 0 .29.15.46.15.16.4.16.24 0 .42-.1t.32-.27zm.16-1.58q-.16 0-.26.11t-.1.32q0 .18.08.36.08.17.22.34.22-.15.32-.32t.1-.39q0-.2-.1-.3-.1-.12-.26-.12zM73.22 31.5q-.25 0-.45.12-.19.1-.32.3-.12.2-.2.47-.06.26-.06.58 0 .44.12.77t.35.5q.23.18.56.18.2 0 .37-.03.17-.04.32-.1v.35q-.15.07-.33.1-.18.04-.4.04-.46 0-.77-.22-.3-.22-.47-.63-.16-.4-.16-.97 0-.39.1-.71.08-.33.26-.58.18-.25.45-.38.27-.14.62-.14.23 0 .43.05.2.05.38.14l-.15.34q-.14-.08-.3-.13-.17-.04-.35-.04zM75.37 32.04q.42 0 .62.22.19.23.19.68v1.79h-.29l-.06-.38h-.02q-.09.14-.19.23-.1.1-.24.15-.13.05-.32.05-.22 0-.38-.1t-.24-.27q-.09-.17-.09-.4 0-.4.27-.62.27-.21.8-.23l.38-.02v-.17q0-.33-.12-.47-.11-.14-.34-.14-.16 0-.32.05-.15.04-.3.13l-.13-.3q.16-.09.36-.15.2-.05.42-.05zm.43 1.38-.32.02q-.4.01-.56.15-.17.15-.17.41 0 .24.11.35.12.12.3.12.3 0 .47-.2.17-.21.17-.6zM77.65 34.45l.16-.01.14-.04v.3q-.07.04-.17.06l-.22.02q-.2 0-.33-.08-.14-.07-.22-.24-.08-.16-.08-.43V32.4h-.3v-.2l.31-.13.13-.6h.25v.61h.61v.32h-.6V34q0 .23.07.34.08.11.25.11zM83.14 31.2l-.84 3.53h-.43l-.58-2.34-.04-.16-.04-.17-.03-.17-.02-.17-.02.14-.03.16-.04.18-.04.19-.57 2.34h-.43l-.84-3.53h.41l.5 2.23.05.23.05.22.03.2.03.18.03-.2.04-.22.04-.22.05-.2.54-2.22h.4l.55 2.22.05.21.04.21.04.21.03.2.04-.27.05-.28.06-.28.51-2.22zM83.94 30.98v1.3q0 .1-.02.18h.03q.06-.13.17-.23.1-.09.24-.14.14-.05.3-.05.26 0 .44.1t.27.3q.08.21.08.53v1.76h-.38v-1.71q0-.34-.12-.5-.11-.15-.36-.15-.23 0-.37.11-.15.1-.21.32-.07.22-.07.55v1.38h-.38v-3.75zM86.57 32.08v2.65h-.38v-2.65zm-.18-.99q.1 0 .16.07t.06.2q0 .13-.06.2t-.16.07q-.1 0-.17-.07t-.07-.2q0-.13.06-.2.07-.07.18-.07zM88.76 34.02q0 .25-.1.42-.1.17-.3.25-.2.09-.5.09-.22 0-.4-.04-.17-.05-.3-.12v-.38q.13.09.32.15.2.06.39.06.26 0 .39-.11.13-.1.13-.3 0-.11-.06-.2-.05-.08-.16-.15-.12-.08-.32-.17-.21-.1-.37-.2-.15-.1-.24-.24-.08-.14-.08-.35 0-.32.23-.5.24-.2.63-.2.2 0 .38.05t.33.13l-.14.3q-.13-.06-.28-.1-.15-.05-.3-.05-.23 0-.36.1-.12.09-.12.25 0 .12.05.2.06.08.18.15l.33.17q.2.1.35.2.16.1.24.24.08.14.08.35zM90.43 32.04q.43 0 .68.34.25.34.25 1.02 0 .45-.12.75-.1.31-.32.47-.2.16-.49.16-.17 0-.3-.05-.15-.06-.25-.15-.1-.1-.17-.22h-.02l.01.2.01.2v1.15h-.38v-3.83h.31l.05.4h.02q.08-.14.18-.24.1-.1.23-.15.13-.05.3-.05zm-.08.32q-.22 0-.36.11-.14.1-.2.32-.07.21-.08.53v.1q0 .34.07.57.06.23.2.34.15.12.38.12.2 0 .33-.12.14-.13.2-.36.07-.23.07-.57 0-.5-.15-.77-.14-.27-.46-.27zM92.84 32.04q.3 0 .51.15.21.16.32.42.1.27.1.61v.26h-1.54q0 .48.2.72.18.25.53.25.2 0 .36-.05.17-.04.35-.13v.34q-.17.09-.35.13-.17.04-.39.04-.35 0-.6-.17-.24-.16-.37-.47-.12-.3-.12-.72 0-.43.12-.74t.34-.48q.23-.16.54-.16zm0 .32q-.27 0-.42.2-.15.2-.18.6h1.15q0-.22-.06-.4-.06-.19-.18-.3-.12-.1-.31-.1zM95.42 32.04h.14l.13.03-.05.38-.12-.03h-.12q-.14 0-.26.06-.11.07-.2.2-.08.11-.13.28-.05.17-.05.37v1.4h-.38v-2.65h.3l.05.48h.03q.06-.15.16-.27.1-.11.22-.18.13-.07.28-.07zM97 32.04q.3 0 .51.15.21.16.32.42.1.27.1.61v.26H96.4q0 .48.2.72.18.25.53.25.2 0 .36-.05.17-.04.35-.13v.34q-.17.09-.35.13-.17.04-.39.04-.35 0-.6-.17-.24-.16-.37-.47-.12-.3-.12-.72 0-.43.12-.74t.34-.48q.23-.16.54-.16zm0 .32q-.27 0-.42.2-.15.2-.18.6h1.15q0-.22-.06-.4-.06-.19-.18-.3-.12-.1-.31-.1zM99.58 32.04h.14l.13.03-.05.38-.12-.03h-.12q-.14 0-.26.06-.11.07-.2.2-.08.11-.13.28-.05.17-.05.37v1.4h-.38v-2.65h.3l.05.48h.03q.06-.15.16-.27.1-.11.22-.18.13-.07.28-.07z" />
	</g>
</svg>
